# xmcd
#
# Track frame offsets:
#	150
#	19077
#	39332
#	58290
#	78625
#	97905
#	121585
#	141977
#	158485
#	177445
#	194280
#	212612
#
# Disc length: 3051
#
# Revision: 1
# Processed by: cddbd v1.5.1PL0 Copyright (c) Steve Scherf et al.
# Submitted via: dBpowerAMP V4.0
# Normalized: r0:TRMNUM
#
DISCID=9a0be90c
DTITLE=Tommy Nilsson - Follow the road
DYEAR=1996
DGENRE=Pop
TTITLE0=Looking through the eyes of a child
TTITLE1=Don´t walk away
TTITLE2=Miracle
TTITLE3=Too many expectations
TTITLE4=Stranded in the shadow
TTITLE5=Peace in our time
TTITLE6=Cathy
TTITLE7=Your love
TTITLE8=The power within
TTITLE9=I won´t give up
TTITLE10=There´s a river
TTITLE11=Don´t break it. Bonus track
EXTD=
EXTT0=
EXTT1=
EXTT2=
EXTT3=
EXTT4=
EXTT5=
EXTT6=
EXTT7=
EXTT8=
EXTT9=
EXTT10=
EXTT11=
PLAYORDER=
